<svg width="26" height="20" viewBox="0 0 26 20" fill="none" xmlns="http://www.w3.org/2000/svg">
<path d="M24.5259 16.2318H3.43213V1.38802C3.43213 0.956381 3.08252 0.606771 2.65088 0.606771H1.08838C0.656738 0.606771 0.307129 0.956381 0.307129 1.38802V17.7943C0.307129 18.6571 1.00684 19.3568 1.86963 19.3568H24.5259C24.9575 19.3568 25.3071 19.0072 25.3071 18.5755V17.013C25.3071 16.5814 24.9575 16.2318 24.5259 16.2318ZM22.9634 2.16927H17.1987C16.1548 2.16927 15.6318 3.43148 16.3701 4.16976L17.9521 5.75179L14.3696 9.3348L10.7871 5.75228C10.1768 5.14193 9.1875 5.14193 8.57764 5.75228L5.22363 9.10628C4.91846 9.41146 4.91846 9.90609 5.22363 10.2113L6.32812 11.3158C6.6333 11.6209 7.12793 11.6209 7.43311 11.3158L9.68213 9.06624L13.2646 12.6488C13.875 13.2591 14.8643 13.2591 15.4741 12.6488L20.1616 7.96126L21.7437 9.5433C22.4819 10.2816 23.7441 9.75863 23.7441 8.71468V2.95052C23.7446 2.51888 23.395 2.16927 22.9634 2.16927Z" fill="black"/>
</svg>
