<svg width="19" height="25" viewBox="0 0 19 25" fill="none" xmlns="http://www.w3.org/2000/svg">
<path d="M10.9375 6.64062V0H1.17188C0.522461 0 0 0.522461 0 1.17188V23.8281C0 24.4775 0.522461 25 1.17188 25H17.5781C18.2275 25 18.75 24.4775 18.75 23.8281V7.8125H12.1094C11.4648 7.8125 10.9375 7.28516 10.9375 6.64062ZM6.25 13.6719C6.25 13.8877 6.0752 14.0625 5.85938 14.0625H5.46875C5.03711 14.0625 4.6875 14.4121 4.6875 14.8438V16.4062C4.6875 16.8379 5.03711 17.1875 5.46875 17.1875H5.85938C6.0752 17.1875 6.25 17.3623 6.25 17.5781V18.3594C6.25 18.5752 6.0752 18.75 5.85938 18.75H5.46875C4.17432 18.75 3.125 17.7007 3.125 16.4062V14.8438C3.125 13.5493 4.17432 12.5 5.46875 12.5H5.85938C6.0752 12.5 6.25 12.6748 6.25 12.8906V13.6719ZM8.41162 18.75H7.8125C7.59668 18.75 7.42188 18.5752 7.42188 18.3594V17.5781C7.42188 17.3623 7.59668 17.1875 7.8125 17.1875H8.41162C8.70215 17.1875 8.91992 17.0166 8.91992 16.8643C8.91992 16.8008 8.8833 16.7344 8.81641 16.6768L7.74756 15.7603C7.33398 15.4077 7.09668 14.9067 7.09668 14.3862C7.09668 13.3462 8.02539 12.5005 9.16748 12.5005H9.76562C9.98145 12.5005 10.1562 12.6753 10.1562 12.8911V13.6724C10.1562 13.8882 9.98145 14.063 9.76562 14.063H9.1665C8.87598 14.063 8.6582 14.2339 8.6582 14.3862C8.6582 14.4497 8.69482 14.5161 8.76172 14.5737L9.83057 15.4902C10.2441 15.8428 10.4814 16.3438 10.4814 16.8643C10.4819 17.9038 9.55371 18.75 8.41162 18.75ZM12.5 12.8906V13.9062C12.5 14.896 12.7783 15.8677 13.2812 16.6836C13.7842 15.8682 14.0625 14.896 14.0625 13.9062V12.8906C14.0625 12.6748 14.2373 12.5 14.4531 12.5H15.2344C15.4502 12.5 15.625 12.6748 15.625 12.8906V13.9062C15.625 15.6387 14.9961 17.27 13.8535 18.5005C13.7061 18.6592 13.4985 18.75 13.2812 18.75C13.064 18.75 12.8564 18.6592 12.709 18.5005C11.5664 17.27 10.9375 15.6387 10.9375 13.9062V12.8906C10.9375 12.6748 11.1123 12.5 11.3281 12.5H12.1094C12.3252 12.5 12.5 12.6748 12.5 12.8906ZM18.4082 5.12695L13.6279 0.341797C13.4082 0.12207 13.1104 0 12.7979 0H12.5V6.25H18.75V5.95215C18.75 5.64453 18.6279 5.34668 18.4082 5.12695Z" fill="white"/>
</svg>
