<svg width="20" height="26" viewBox="0 0 20 26" fill="none" xmlns="http://www.w3.org/2000/svg">
<path d="M11.8799 7.36329V0.722664H2.11426C1.46484 0.722664 0.942383 1.24512 0.942383 1.89454V24.5508C0.942383 25.2002 1.46484 25.7227 2.11426 25.7227H18.5205C19.1699 25.7227 19.6924 25.2002 19.6924 24.5508V8.53516H13.0518C12.4072 8.53516 11.8799 8.00782 11.8799 7.36329ZM15.0049 18.8867C15.0049 19.209 14.7412 19.4727 14.4189 19.4727H6.21582C5.89355 19.4727 5.62988 19.209 5.62988 18.8867V18.4961C5.62988 18.1738 5.89355 17.9102 6.21582 17.9102H14.4189C14.7412 17.9102 15.0049 18.1738 15.0049 18.4961V18.8867ZM15.0049 15.7617C15.0049 16.084 14.7412 16.3477 14.4189 16.3477H6.21582C5.89355 16.3477 5.62988 16.084 5.62988 15.7617V15.3711C5.62988 15.0488 5.89355 14.7852 6.21582 14.7852H14.4189C14.7412 14.7852 15.0049 15.0488 15.0049 15.3711V15.7617ZM15.0049 12.2461V12.6367C15.0049 12.959 14.7412 13.2227 14.4189 13.2227H6.21582C5.89355 13.2227 5.62988 12.959 5.62988 12.6367V12.2461C5.62988 11.9238 5.89355 11.6602 6.21582 11.6602H14.4189C14.7412 11.6602 15.0049 11.9238 15.0049 12.2461ZM19.6924 6.67481V6.97266H13.4424V0.722664H13.7402C14.0527 0.722664 14.3506 0.844734 14.5703 1.06446L19.3506 5.84962C19.5703 6.06934 19.6924 6.3672 19.6924 6.67481Z" fill="black"/>
</svg>
