<svg width="23" height="26" viewBox="0 0 23 26" fill="none" xmlns="http://www.w3.org/2000/svg">
<path d="M5.74219 11.4043C8.76465 11.4043 11.2109 8.95798 11.2109 5.93552C11.2109 2.91306 8.76465 0.466766 5.74219 0.466766C2.71973 0.466766 0.273438 2.91306 0.273438 5.93552C0.273438 8.95798 2.71973 11.4043 5.74219 11.4043ZM5.74219 3.59177C7.03613 3.59177 8.08594 4.64157 8.08594 5.93552C8.08594 7.22946 7.03613 8.27927 5.74219 8.27927C4.44824 8.27927 3.39844 7.22946 3.39844 5.93552C3.39844 4.64157 4.44824 3.59177 5.74219 3.59177ZM16.6797 14.5293C13.6572 14.5293 11.2109 16.9756 11.2109 19.998C11.2109 23.0205 13.6572 25.4668 16.6797 25.4668C19.7021 25.4668 22.1484 23.0205 22.1484 19.998C22.1484 16.9756 19.7021 14.5293 16.6797 14.5293ZM16.6797 22.3418C15.3857 22.3418 14.3359 21.292 14.3359 19.998C14.3359 18.7041 15.3857 17.6543 16.6797 17.6543C17.9736 17.6543 19.0234 18.7041 19.0234 19.998C19.0234 21.292 17.9736 22.3418 16.6797 22.3418ZM19.4287 0.476532L20.9717 0.471649C21.9189 0.466766 22.4805 1.5361 21.9336 2.31735L4.05273 24.959C3.94492 25.1127 3.80167 25.2382 3.63508 25.3249C3.4685 25.4116 3.28349 25.4569 3.0957 25.457L1.46484 25.4619C0.512695 25.4619 -0.0439453 24.3925 0.50293 23.6162L18.4717 0.974579C18.6914 0.662079 19.0479 0.476532 19.4287 0.476532Z" fill="black"/>
</svg>
