<svg width="26" height="26" viewBox="0 0 26 26" fill="none" xmlns="http://www.w3.org/2000/svg">
<path d="M25.3748 21.8553L20.5066 16.9872C20.2869 16.7674 19.989 16.6454 19.6765 16.6454H18.8806C20.2283 14.9217 21.0291 12.7538 21.0291 10.3954C21.0291 4.785 16.4832 0.239105 10.8728 0.239105C5.26245 0.239105 0.716553 4.785 0.716553 10.3954C0.716553 16.0057 5.26245 20.5516 10.8728 20.5516C13.2312 20.5516 15.3992 19.7508 17.1228 18.4032V19.1991C17.1228 19.5116 17.2449 19.8094 17.4646 20.0291L22.3328 24.8973C22.7917 25.3563 23.5339 25.3563 23.988 24.8973L25.3699 23.5155C25.8289 23.0565 25.8289 22.3143 25.3748 21.8553ZM10.8728 16.6454C7.42065 16.6454 4.6228 13.8524 4.6228 10.3954C4.6228 6.94321 7.41577 4.14536 10.8728 4.14536C14.325 4.14536 17.1228 6.93832 17.1228 10.3954C17.1228 13.8475 14.3298 16.6454 10.8728 16.6454Z" fill="#9B9B9B"/>
</svg>
