<svg width="19" height="19" viewBox="0 0 19 19" fill="none" xmlns="http://www.w3.org/2000/svg">
<path d="M10.9844 14.2472H8.01562C7.52207 14.2472 7.125 13.8501 7.125 13.3566V7.12222H3.87051C3.20996 7.12222 2.87969 6.32437 3.34727 5.85679L8.9916 0.20874C9.26992 -0.0695801 9.72637 -0.0695801 10.0047 0.20874L15.6527 5.85679C16.1203 6.32437 15.79 7.12222 15.1295 7.12222H11.875V13.3566C11.875 13.8501 11.4779 14.2472 10.9844 14.2472ZM19 13.9503V18.1066C19 18.6001 18.6029 18.9972 18.1094 18.9972H0.890625C0.39707 18.9972 0 18.6001 0 18.1066V13.9503C0 13.4568 0.39707 13.0597 0.890625 13.0597H5.9375V13.3566C5.9375 14.5033 6.86895 15.4347 8.01562 15.4347H10.9844C12.1311 15.4347 13.0625 14.5033 13.0625 13.3566V13.0597H18.1094C18.6029 13.0597 19 13.4568 19 13.9503ZM14.3984 17.216C14.3984 16.8078 14.0645 16.4738 13.6562 16.4738C13.248 16.4738 12.9141 16.8078 12.9141 17.216C12.9141 17.6242 13.248 17.9582 13.6562 17.9582C14.0645 17.9582 14.3984 17.6242 14.3984 17.216ZM16.7734 17.216C16.7734 16.8078 16.4395 16.4738 16.0312 16.4738C15.623 16.4738 15.2891 16.8078 15.2891 17.216C15.2891 17.6242 15.623 17.9582 16.0312 17.9582C16.4395 17.9582 16.7734 17.6242 16.7734 17.216Z" fill="#023430"/>
</svg>
