<svg width="19" height="15" viewBox="0 0 19 15" fill="none" xmlns="http://www.w3.org/2000/svg">
<path d="M12.35 9.5H13.775C14.0125 9.5 14.25 9.2625 14.25 9.025V4.0375C14.25 3.8 14.0125 3.5625 13.775 3.5625H12.35C12.1125 3.5625 11.875 3.8 11.875 4.0375V9.025C11.875 9.2625 12.1125 9.5 12.35 9.5ZM15.9125 9.5H17.3375C17.575 9.5 17.8125 9.2625 17.8125 9.025V0.475C17.8125 0.2375 17.575 0 17.3375 0H15.9125C15.675 0 15.4375 0.2375 15.4375 0.475V9.025C15.4375 9.2625 15.675 9.5 15.9125 9.5ZM5.225 9.5H6.65C6.8875 9.5 7.125 9.2625 7.125 9.025V6.4125C7.125 6.175 6.8875 5.9375 6.65 5.9375H5.225C4.9875 5.9375 4.75 6.175 4.75 6.4125V9.025C4.75 9.2625 4.9875 9.5 5.225 9.5ZM8.7875 9.5H10.2125C10.45 9.5 10.6875 9.2625 10.6875 9.025V1.6625C10.6875 1.425 10.45 1.1875 10.2125 1.1875H8.7875C8.55 1.1875 8.3125 1.425 8.3125 1.6625V9.025C8.3125 9.2625 8.55 9.5 8.7875 9.5ZM18.4062 11.875H2.375V0.59375C2.375 0.265703 2.1093 0 1.78125 0H0.59375C0.265703 0 0 0.265703 0 0.59375V13.0625C0 13.7182 0.531777 14.25 1.1875 14.25H18.4062C18.7343 14.25 19 13.9843 19 13.6562V12.4688C19 12.1407 18.7343 11.875 18.4062 11.875Z" fill="#023430"/>
</svg>
